<?xml version="1.0" encoding="utf-8" standalone="no"?>
<!DOCTYPE svg PUBLIC "-//W3C//DTD SVG 1.1//EN"
  "http://www.w3.org/Graphics/SVG/1.1/DTD/svg11.dtd">
<svg xmlns:xlink="http://www.w3.org/1999/xlink" width="1728pt" height="576pt" viewBox="0 0 1728 576" xmlns="http://www.w3.org/2000/svg" version="1.1">
 <metadata>
  <rdf:RDF xmlns:dc="http://purl.org/dc/elements/1.1/" xmlns:cc="http://creativecommons.org/ns#" xmlns:rdf="http://www.w3.org/1999/02/22-rdf-syntax-ns#">
   <cc:Work>
    <dc:type rdf:resource="http://purl.org/dc/dcmitype/StillImage"/>
    <dc:date>2024-07-22T15:00:34.805693</dc:date>
    <dc:format>image/svg+xml</dc:format>
    <dc:creator>
     <cc:Agent>
      <dc:title>Matplotlib v3.8.4, https://matplotlib.org/</dc:title>
     </cc:Agent>
    </dc:creator>
   </cc:Work>
  </rdf:RDF>
 </metadata>
 <defs>
  <style type="text/css">*{stroke-linejoin: round; stroke-linecap: butt}</style>
 </defs>
 <g id="figure_1">
  <g id="patch_1">
   <path d="M 0 576 
L 1728 576 
L 1728 0 
L 0 0 
z
" style="fill: #ffffff"/>
  </g>
  <g id="axes_1">
   <g id="patch_2">
    <path d="M 248.48 503.733333 
L 1536.531692 503.733333 
L 1536.531692 64.797538 
L 248.48 64.797538 
z
" style="fill: #ffffff"/>
   </g>
   <g id="QuadMesh_1">
    <path d="M 307.027804 84.749166 
L 404.607478 84.749166 
L 404.607478 121.024851 
L 307.027804 121.024851 
L 307.027804 84.749166 
" clip-path="url(#p7681f94897)" style="fill: #8cc0dd"/>
    <path d="M 404.607478 84.749166 
L 502.187152 84.749166 
L 502.187152 121.024851 
L 404.607478 121.024851 
L 404.607478 84.749166 
" clip-path="url(#p7681f94897)" style="fill: #75b4d8"/>
    <path d="M 502.187152 84.749166 
L 599.766825 84.749166 
L 599.766825 121.024851 
L 502.187152 121.024851 
L 502.187152 84.749166 
" clip-path="url(#p7681f94897)" style="fill: #63a8d3"/>
    <path d="M 599.766825 84.749166 
L 697.346499 84.749166 
L 697.346499 121.024851 
L 599.766825 121.024851 
L 599.766825 84.749166 
" clip-path="url(#p7681f94897)" style="fill: #519ccc"/>
    <path d="M 697.346499 84.749166 
L 794.926172 84.749166 
L 794.926172 121.024851 
L 697.346499 121.024851 
L 697.346499 84.749166 
" clip-path="url(#p7681f94897)" style="fill: #083d7f"/>
    <path d="M 794.926172 84.749166 
L 892.505846 84.749166 
L 892.505846 121.024851 
L 794.926172 121.024851 
L 794.926172 84.749166 
" clip-path="url(#p7681f94897)" style="fill: #1966ad"/>
    <path d="M 892.505846 84.749166 
L 990.08552 84.749166 
L 990.08552 121.024851 
L 892.505846 121.024851 
L 892.505846 84.749166 
" clip-path="url(#p7681f94897)" style="fill: #1966ad"/>
    <path d="M 990.08552 84.749166 
L 1087.665193 84.749166 
L 1087.665193 121.024851 
L 990.08552 121.024851 
L 990.08552 84.749166 
" clip-path="url(#p7681f94897)" style="fill: #2474b7"/>
    <path d="M 1087.665193 84.749166 
L 1185.244867 84.749166 
L 1185.244867 121.024851 
L 1087.665193 121.024851 
L 1087.665193 84.749166 
" clip-path="url(#p7681f94897)" style="fill: #083d7f"/>
    <path d="M 1185.244867 84.749166 
L 1282.824541 84.749166 
L 1282.824541 121.024851 
L 1185.244867 121.024851 
L 1185.244867 84.749166 
" clip-path="url(#p7681f94897)" style="fill: #08306b"/>
    <path d="M 1282.824541 84.749166 
L 1380.404214 84.749166 
L 1380.404214 121.024851 
L 1282.824541 121.024851 
L 1282.824541 84.749166 
" clip-path="url(#p7681f94897)" style="fill: #4090c5"/>
    <path d="M 1380.404214 84.749166 
L 1477.983888 84.749166 
L 1477.983888 121.024851 
L 1380.404214 121.024851 
L 1380.404214 84.749166 
" clip-path="url(#p7681f94897)" style="fill: #083d7f"/>
    <path d="M 307.027804 121.024851 
L 404.607478 121.024851 
L 404.607478 157.300537 
L 307.027804 157.300537 
L 307.027804 121.024851 
" clip-path="url(#p7681f94897)" style="fill: #b2d2e8"/>
    <path d="M 404.607478 121.024851 
L 502.187152 121.024851 
L 502.187152 157.300537 
L 404.607478 157.300537 
L 404.607478 121.024851 
" clip-path="url(#p7681f94897)" style="fill: #c2d9ee"/>
    <path d="M 502.187152 121.024851 
L 599.766825 121.024851 
L 599.766825 157.300537 
L 502.187152 157.300537 
L 502.187152 121.024851 
" clip-path="url(#p7681f94897)" style="fill: #a0cbe2"/>
    <path d="M 599.766825 121.024851 
L 697.346499 121.024851 
L 697.346499 157.300537 
L 599.766825 157.300537 
L 599.766825 121.024851 
" clip-path="url(#p7681f94897)" style="fill: #b2d2e8"/>
    <path d="M 697.346499 121.024851 
L 794.926172 121.024851 
L 794.926172 157.300537 
L 697.346499 157.300537 
L 697.346499 121.024851 
" clip-path="url(#p7681f94897)" style="fill: #519ccc"/>
    <path d="M 794.926172 121.024851 
L 892.505846 121.024851 
L 892.505846 157.300537 
L 794.926172 157.300537 
L 794.926172 121.024851 
" clip-path="url(#p7681f94897)" style="fill: #8cc0dd"/>
    <path d="M 892.505846 121.024851 
L 990.08552 121.024851 
L 990.08552 157.300537 
L 892.505846 157.300537 
L 892.505846 121.024851 
" clip-path="url(#p7681f94897)" style="fill: #519ccc"/>
    <path d="M 990.08552 121.024851 
L 1087.665193 121.024851 
L 1087.665193 157.300537 
L 990.08552 157.300537 
L 990.08552 121.024851 
" clip-path="url(#p7681f94897)" style="fill: #63a8d3"/>
    <path d="M 1087.665193 121.024851 
L 1185.244867 121.024851 
L 1185.244867 157.300537 
L 1087.665193 157.300537 
L 1087.665193 121.024851 
" clip-path="url(#p7681f94897)" style="fill: #519ccc"/>
    <path d="M 1185.244867 121.024851 
L 1282.824541 121.024851 
L 1282.824541 157.300537 
L 1185.244867 157.300537 
L 1185.244867 121.024851 
" clip-path="url(#p7681f94897)" style="fill: #8cc0dd"/>
    <path d="M 1282.824541 121.024851 
L 1380.404214 121.024851 
L 1380.404214 157.300537 
L 1282.824541 157.300537 
L 1282.824541 121.024851 
" clip-path="url(#p7681f94897)" style="fill: #8cc0dd"/>
    <path d="M 1380.404214 121.024851 
L 1477.983888 121.024851 
L 1477.983888 157.300537 
L 1380.404214 157.300537 
L 1380.404214 121.024851 
" clip-path="url(#p7681f94897)" style="fill: #8cc0dd"/>
    <path d="M 307.027804 157.300537 
L 404.607478 157.300537 
L 404.607478 193.576222 
L 307.027804 193.576222 
L 307.027804 157.300537 
" clip-path="url(#p7681f94897)" style="fill: #b2d2e8"/>
    <path d="M 404.607478 157.300537 
L 502.187152 157.300537 
L 502.187152 193.576222 
L 404.607478 193.576222 
L 404.607478 157.300537 
" clip-path="url(#p7681f94897)" style="fill: #b2d2e8"/>
    <path d="M 502.187152 157.300537 
L 599.766825 157.300537 
L 599.766825 193.576222 
L 502.187152 193.576222 
L 502.187152 157.300537 
" clip-path="url(#p7681f94897)" style="fill: #b2d2e8"/>
    <path d="M 599.766825 157.300537 
L 697.346499 157.300537 
L 697.346499 193.576222 
L 599.766825 193.576222 
L 599.766825 157.300537 
" clip-path="url(#p7681f94897)" style="fill: #a0cbe2"/>
    <path d="M 697.346499 157.300537 
L 794.926172 157.300537 
L 794.926172 193.576222 
L 697.346499 193.576222 
L 697.346499 157.300537 
" clip-path="url(#p7681f94897)" style="fill: #8cc0dd"/>
    <path d="M 794.926172 157.300537 
L 892.505846 157.300537 
L 892.505846 193.576222 
L 794.926172 193.576222 
L 794.926172 157.300537 
" clip-path="url(#p7681f94897)" style="fill: #8cc0dd"/>
    <path d="M 892.505846 157.300537 
L 990.08552 157.300537 
L 990.08552 193.576222 
L 892.505846 193.576222 
L 892.505846 157.300537 
" clip-path="url(#p7681f94897)" style="fill: #75b4d8"/>
    <path d="M 990.08552 157.300537 
L 1087.665193 157.300537 
L 1087.665193 193.576222 
L 990.08552 193.576222 
L 990.08552 157.300537 
" clip-path="url(#p7681f94897)" style="fill: #8cc0dd"/>
    <path d="M 1087.665193 157.300537 
L 1185.244867 157.300537 
L 1185.244867 193.576222 
L 1087.665193 193.576222 
L 1087.665193 157.300537 
" clip-path="url(#p7681f94897)" style="fill: #63a8d3"/>
    <path d="M 1185.244867 157.300537 
L 1282.824541 157.300537 
L 1282.824541 193.576222 
L 1185.244867 193.576222 
L 1185.244867 157.300537 
" clip-path="url(#p7681f94897)" style="fill: #75b4d8"/>
    <path d="M 1282.824541 157.300537 
L 1380.404214 157.300537 
L 1380.404214 193.576222 
L 1282.824541 193.576222 
L 1282.824541 157.300537 
" clip-path="url(#p7681f94897)" style="fill: #a0cbe2"/>
    <path d="M 1380.404214 157.300537 
L 1477.983888 157.300537 
L 1477.983888 193.576222 
L 1380.404214 193.576222 
L 1380.404214 157.300537 
" clip-path="url(#p7681f94897)" style="fill: #8cc0dd"/>
    <path d="M 307.027804 193.576222 
L 404.607478 193.576222 
L 404.607478 229.851908 
L 307.027804 229.851908 
L 307.027804 193.576222 
" clip-path="url(#p7681f94897)" style="fill: #b2d2e8"/>
    <path d="M 404.607478 193.576222 
L 502.187152 193.576222 
L 502.187152 229.851908 
L 404.607478 229.851908 
L 404.607478 193.576222 
" clip-path="url(#p7681f94897)" style="fill: #c2d9ee"/>
    <path d="M 502.187152 193.576222 
L 599.766825 193.576222 
L 599.766825 229.851908 
L 502.187152 229.851908 
L 502.187152 193.576222 
" clip-path="url(#p7681f94897)" style="fill: #c2d9ee"/>
    <path d="M 599.766825 193.576222 
L 697.346499 193.576222 
L 697.346499 229.851908 
L 599.766825 229.851908 
L 599.766825 193.576222 
" clip-path="url(#p7681f94897)" style="fill: #b2d2e8"/>
    <path d="M 697.346499 193.576222 
L 794.926172 193.576222 
L 794.926172 229.851908 
L 697.346499 229.851908 
L 697.346499 193.576222 
" clip-path="url(#p7681f94897)" style="fill: #b2d2e8"/>
    <path d="M 794.926172 193.576222 
L 892.505846 193.576222 
L 892.505846 229.851908 
L 794.926172 229.851908 
L 794.926172 193.576222 
" clip-path="url(#p7681f94897)" style="fill: #a0cbe2"/>
    <path d="M 892.505846 193.576222 
L 990.08552 193.576222 
L 990.08552 229.851908 
L 892.505846 229.851908 
L 892.505846 193.576222 
" clip-path="url(#p7681f94897)" style="fill: #a0cbe2"/>
    <path d="M 990.08552 193.576222 
L 1087.665193 193.576222 
L 1087.665193 229.851908 
L 990.08552 229.851908 
L 990.08552 193.576222 
" clip-path="url(#p7681f94897)" style="fill: #a0cbe2"/>
    <path d="M 1087.665193 193.576222 
L 1185.244867 193.576222 
L 1185.244867 229.851908 
L 1087.665193 229.851908 
L 1087.665193 193.576222 
" clip-path="url(#p7681f94897)" style="fill: #75b4d8"/>
    <path d="M 1185.244867 193.576222 
L 1282.824541 193.576222 
L 1282.824541 229.851908 
L 1185.244867 229.851908 
L 1185.244867 193.576222 
" clip-path="url(#p7681f94897)" style="fill: #a0cbe2"/>
    <path d="M 1282.824541 193.576222 
L 1380.404214 193.576222 
L 1380.404214 229.851908 
L 1282.824541 229.851908 
L 1282.824541 193.576222 
" clip-path="url(#p7681f94897)" style="fill: #b2d2e8"/>
    <path d="M 1380.404214 193.576222 
L 1477.983888 193.576222 
L 1477.983888 229.851908 
L 1380.404214 229.851908 
L 1380.404214 193.576222 
" clip-path="url(#p7681f94897)" style="fill: #b2d2e8"/>
    <path d="M 307.027804 229.851908 
L 404.607478 229.851908 
L 404.607478 266.127593 
L 307.027804 266.127593 
L 307.027804 229.851908 
" clip-path="url(#p7681f94897)" style="fill: #b2d2e8"/>
    <path d="M 404.607478 229.851908 
L 502.187152 229.851908 
L 502.187152 266.127593 
L 404.607478 266.127593 
L 404.607478 229.851908 
" clip-path="url(#p7681f94897)" style="fill: #b2d2e8"/>
    <path d="M 502.187152 229.851908 
L 599.766825 229.851908 
L 599.766825 266.127593 
L 502.187152 266.127593 
L 502.187152 229.851908 
" clip-path="url(#p7681f94897)" style="fill: #b2d2e8"/>
    <path d="M 599.766825 229.851908 
L 697.346499 229.851908 
L 697.346499 266.127593 
L 599.766825 266.127593 
L 599.766825 229.851908 
" clip-path="url(#p7681f94897)" style="fill: #b2d2e8"/>
    <path d="M 697.346499 229.851908 
L 794.926172 229.851908 
L 794.926172 266.127593 
L 697.346499 266.127593 
L 697.346499 229.851908 
" clip-path="url(#p7681f94897)" style="fill: #8cc0dd"/>
    <path d="M 794.926172 229.851908 
L 892.505846 229.851908 
L 892.505846 266.127593 
L 794.926172 266.127593 
L 794.926172 229.851908 
" clip-path="url(#p7681f94897)" style="fill: #a0cbe2"/>
    <path d="M 892.505846 229.851908 
L 990.08552 229.851908 
L 990.08552 266.127593 
L 892.505846 266.127593 
L 892.505846 229.851908 
" clip-path="url(#p7681f94897)" style="fill: #8cc0dd"/>
    <path d="M 990.08552 229.851908 
L 1087.665193 229.851908 
L 1087.665193 266.127593 
L 990.08552 266.127593 
L 990.08552 229.851908 
" clip-path="url(#p7681f94897)" style="fill: #a0cbe2"/>
    <path d="M 1087.665193 229.851908 
L 1185.244867 229.851908 
L 1185.244867 266.127593 
L 1087.665193 266.127593 
L 1087.665193 229.851908 
" clip-path="url(#p7681f94897)" style="fill: #63a8d3"/>
    <path d="M 1185.244867 229.851908 
L 1282.824541 229.851908 
L 1282.824541 266.127593 
L 1185.244867 266.127593 
L 1185.244867 229.851908 
" clip-path="url(#p7681f94897)" style="fill: #a0cbe2"/>
    <path d="M 1282.824541 229.851908 
L 1380.404214 229.851908 
L 1380.404214 266.127593 
L 1282.824541 266.127593 
L 1282.824541 229.851908 
" clip-path="url(#p7681f94897)" style="fill: #b2d2e8"/>
    <path d="M 1380.404214 229.851908 
L 1477.983888 229.851908 
L 1477.983888 266.127593 
L 1380.404214 266.127593 
L 1380.404214 229.851908 
" clip-path="url(#p7681f94897)" style="fill: #a0cbe2"/>
    <path d="M 307.027804 266.127593 
L 404.607478 266.127593 
L 404.607478 302.403279 
L 307.027804 302.403279 
L 307.027804 266.127593 
" clip-path="url(#p7681f94897)" style="fill: #c2d9ee"/>
    <path d="M 404.607478 266.127593 
L 502.187152 266.127593 
L 502.187152 302.403279 
L 404.607478 302.403279 
L 404.607478 266.127593 
" clip-path="url(#p7681f94897)" style="fill: #c2d9ee"/>
    <path d="M 502.187152 266.127593 
L 599.766825 266.127593 
L 599.766825 302.403279 
L 502.187152 302.403279 
L 502.187152 266.127593 
" clip-path="url(#p7681f94897)" style="fill: #c2d9ee"/>
    <path d="M 599.766825 266.127593 
L 697.346499 266.127593 
L 697.346499 302.403279 
L 599.766825 302.403279 
L 599.766825 266.127593 
" clip-path="url(#p7681f94897)" style="fill: #c2d9ee"/>
    <path d="M 697.346499 266.127593 
L 794.926172 266.127593 
L 794.926172 302.403279 
L 697.346499 302.403279 
L 697.346499 266.127593 
" clip-path="url(#p7681f94897)" style="fill: #b2d2e8"/>
    <path d="M 794.926172 266.127593 
L 892.505846 266.127593 
L 892.505846 302.403279 
L 794.926172 302.403279 
L 794.926172 266.127593 
" clip-path="url(#p7681f94897)" style="fill: #b2d2e8"/>
    <path d="M 892.505846 266.127593 
L 990.08552 266.127593 
L 990.08552 302.403279 
L 892.505846 302.403279 
L 892.505846 266.127593 
" clip-path="url(#p7681f94897)" style="fill: #c2d9ee"/>
    <path d="M 990.08552 266.127593 
L 1087.665193 266.127593 
L 1087.665193 302.403279 
L 990.08552 302.403279 
L 990.08552 266.127593 
" clip-path="url(#p7681f94897)" style="fill: #c2d9ee"/>
    <path d="M 1087.665193 266.127593 
L 1185.244867 266.127593 
L 1185.244867 302.403279 
L 1087.665193 302.403279 
L 1087.665193 266.127593 
" clip-path="url(#p7681f94897)" style="fill: #b2d2e8"/>
    <path d="M 1185.244867 266.127593 
L 1282.824541 266.127593 
L 1282.824541 302.403279 
L 1185.244867 302.403279 
L 1185.244867 266.127593 
" clip-path="url(#p7681f94897)" style="fill: #c2d9ee"/>
    <path d="M 1282.824541 266.127593 
L 1380.404214 266.127593 
L 1380.404214 302.403279 
L 1282.824541 302.403279 
L 1282.824541 266.127593 
" clip-path="url(#p7681f94897)" style="fill: #c2d9ee"/>
    <path d="M 1380.404214 266.127593 
L 1477.983888 266.127593 
L 1477.983888 302.403279 
L 1380.404214 302.403279 
L 1380.404214 266.127593 
" clip-path="url(#p7681f94897)" style="fill: #b2d2e8"/>
    <path d="M 307.027804 302.403279 
L 404.607478 302.403279 
L 404.607478 338.678964 
L 307.027804 338.678964 
L 307.027804 302.403279 
" clip-path="url(#p7681f94897)" style="fill: #c2d9ee"/>
    <path d="M 404.607478 302.403279 
L 502.187152 302.403279 
L 502.187152 338.678964 
L 404.607478 338.678964 
L 404.607478 302.403279 
" clip-path="url(#p7681f94897)" style="fill: #c2d9ee"/>
    <path d="M 502.187152 302.403279 
L 599.766825 302.403279 
L 599.766825 338.678964 
L 502.187152 338.678964 
L 502.187152 302.403279 
" clip-path="url(#p7681f94897)" style="fill: #c2d9ee"/>
    <path d="M 599.766825 302.403279 
L 697.346499 302.403279 
L 697.346499 338.678964 
L 599.766825 338.678964 
L 599.766825 302.403279 
" clip-path="url(#p7681f94897)" style="fill: #c2d9ee"/>
    <path d="M 697.346499 302.403279 
L 794.926172 302.403279 
L 794.926172 338.678964 
L 697.346499 338.678964 
L 697.346499 302.403279 
" clip-path="url(#p7681f94897)" style="fill: #c2d9ee"/>
    <path d="M 794.926172 302.403279 
L 892.505846 302.403279 
L 892.505846 338.678964 
L 794.926172 338.678964 
L 794.926172 302.403279 
" clip-path="url(#p7681f94897)" style="fill: #c2d9ee"/>
    <path d="M 892.505846 302.403279 
L 990.08552 302.403279 
L 990.08552 338.678964 
L 892.505846 338.678964 
L 892.505846 302.403279 
" clip-path="url(#p7681f94897)" style="fill: #b2d2e8"/>
    <path d="M 990.08552 302.403279 
L 1087.665193 302.403279 
L 1087.665193 338.678964 
L 990.08552 338.678964 
L 990.08552 302.403279 
" clip-path="url(#p7681f94897)" style="fill: #b2d2e8"/>
    <path d="M 1087.665193 302.403279 
L 1185.244867 302.403279 
L 1185.244867 338.678964 
L 1087.665193 338.678964 
L 1087.665193 302.403279 
" clip-path="url(#p7681f94897)" style="fill: #b2d2e8"/>
    <path d="M 1185.244867 302.403279 
L 1282.824541 302.403279 
L 1282.824541 338.678964 
L 1185.244867 338.678964 
L 1185.244867 302.403279 
" clip-path="url(#p7681f94897)" style="fill: #b2d2e8"/>
    <path d="M 1282.824541 302.403279 
L 1380.404214 302.403279 
L 1380.404214 338.678964 
L 1282.824541 338.678964 
L 1282.824541 302.403279 
" clip-path="url(#p7681f94897)" style="fill: #c2d9ee"/>
    <path d="M 1380.404214 302.403279 
L 1477.983888 302.403279 
L 1477.983888 338.678964 
L 1380.404214 338.678964 
L 1380.404214 302.403279 
" clip-path="url(#p7681f94897)" style="fill: #b2d2e8"/>
    <path d="M 307.027804 338.678964 
L 404.607478 338.678964 
L 404.607478 374.95465 
L 307.027804 374.95465 
L 307.027804 338.678964 
" clip-path="url(#p7681f94897)" style="fill: none"/>
    <path d="M 404.607478 338.678964 
L 502.187152 338.678964 
L 502.187152 374.95465 
L 404.607478 374.95465 
L 404.607478 338.678964 
" clip-path="url(#p7681f94897)" style="fill: none"/>
    <path d="M 502.187152 338.678964 
L 599.766825 338.678964 
L 599.766825 374.95465 
L 502.187152 374.95465 
L 502.187152 338.678964 
" clip-path="url(#p7681f94897)" style="fill: none"/>
    <path d="M 599.766825 338.678964 
L 697.346499 338.678964 
L 697.346499 374.95465 
L 599.766825 374.95465 
L 599.766825 338.678964 
" clip-path="url(#p7681f94897)" style="fill: none"/>
    <path d="M 697.346499 338.678964 
L 794.926172 338.678964 
L 794.926172 374.95465 
L 697.346499 374.95465 
L 697.346499 338.678964 
" clip-path="url(#p7681f94897)" style="fill: #c2d9ee"/>
    <path d="M 794.926172 338.678964 
L 892.505846 338.678964 
L 892.505846 374.95465 
L 794.926172 374.95465 
L 794.926172 338.678964 
" clip-path="url(#p7681f94897)" style="fill: #c2d9ee"/>
    <path d="M 892.505846 338.678964 
L 990.08552 338.678964 
L 990.08552 374.95465 
L 892.505846 374.95465 
L 892.505846 338.678964 
" clip-path="url(#p7681f94897)" style="fill: #c2d9ee"/>
    <path d="M 990.08552 338.678964 
L 1087.665193 338.678964 
L 1087.665193 374.95465 
L 990.08552 374.95465 
L 990.08552 338.678964 
" clip-path="url(#p7681f94897)" style="fill: #c2d9ee"/>
    <path d="M 1087.665193 338.678964 
L 1185.244867 338.678964 
L 1185.244867 374.95465 
L 1087.665193 374.95465 
L 1087.665193 338.678964 
" clip-path="url(#p7681f94897)" style="fill: #c2d9ee"/>
    <path d="M 1185.244867 338.678964 
L 1282.824541 338.678964 
L 1282.824541 374.95465 
L 1185.244867 374.95465 
L 1185.244867 338.678964 
" clip-path="url(#p7681f94897)" style="fill: #c2d9ee"/>
    <path d="M 1282.824541 338.678964 
L 1380.404214 338.678964 
L 1380.404214 374.95465 
L 1282.824541 374.95465 
L 1282.824541 338.678964 
" clip-path="url(#p7681f94897)" style="fill: none"/>
    <path d="M 1380.404214 338.678964 
L 1477.983888 338.678964 
L 1477.983888 374.95465 
L 1380.404214 374.95465 
L 1380.404214 338.678964 
" clip-path="url(#p7681f94897)" style="fill: #c2d9ee"/>
    <path d="M 307.027804 374.95465 
L 404.607478 374.95465 
L 404.607478 411.230335 
L 307.027804 411.230335 
L 307.027804 374.95465 
" clip-path="url(#p7681f94897)" style="fill: #c2d9ee"/>
    <path d="M 404.607478 374.95465 
L 502.187152 374.95465 
L 502.187152 411.230335 
L 404.607478 411.230335 
L 404.607478 374.95465 
" clip-path="url(#p7681f94897)" style="fill: #c2d9ee"/>
    <path d="M 502.187152 374.95465 
L 599.766825 374.95465 
L 599.766825 411.230335 
L 502.187152 411.230335 
L 502.187152 374.95465 
" clip-path="url(#p7681f94897)" style="fill: #c2d9ee"/>
    <path d="M 599.766825 374.95465 
L 697.346499 374.95465 
L 697.346499 411.230335 
L 599.766825 411.230335 
L 599.766825 374.95465 
" clip-path="url(#p7681f94897)" style="fill: #c2d9ee"/>
    <path d="M 697.346499 374.95465 
L 794.926172 374.95465 
L 794.926172 411.230335 
L 697.346499 411.230335 
L 697.346499 374.95465 
" clip-path="url(#p7681f94897)" style="fill: #c2d9ee"/>
    <path d="M 794.926172 374.95465 
L 892.505846 374.95465 
L 892.505846 411.230335 
L 794.926172 411.230335 
L 794.926172 374.95465 
" clip-path="url(#p7681f94897)" style="fill: #c2d9ee"/>
    <path d="M 892.505846 374.95465 
L 990.08552 374.95465 
L 990.08552 411.230335 
L 892.505846 411.230335 
L 892.505846 374.95465 
" clip-path="url(#p7681f94897)" style="fill: #c2d9ee"/>
    <path d="M 990.08552 374.95465 
L 1087.665193 374.95465 
L 1087.665193 411.230335 
L 990.08552 411.230335 
L 990.08552 374.95465 
" clip-path="url(#p7681f94897)" style="fill: #c2d9ee"/>
    <path d="M 1087.665193 374.95465 
L 1185.244867 374.95465 
L 1185.244867 411.230335 
L 1087.665193 411.230335 
L 1087.665193 374.95465 
" clip-path="url(#p7681f94897)" style="fill: #c2d9ee"/>
    <path d="M 1185.244867 374.95465 
L 1282.824541 374.95465 
L 1282.824541 411.230335 
L 1185.244867 411.230335 
L 1185.244867 374.95465 
" clip-path="url(#p7681f94897)" style="fill: #c2d9ee"/>
    <path d="M 1282.824541 374.95465 
L 1380.404214 374.95465 
L 1380.404214 411.230335 
L 1282.824541 411.230335 
L 1282.824541 374.95465 
" clip-path="url(#p7681f94897)" style="fill: #c2d9ee"/>
    <path d="M 1380.404214 374.95465 
L 1477.983888 374.95465 
L 1477.983888 411.230335 
L 1380.404214 411.230335 
L 1380.404214 374.95465 
" clip-path="url(#p7681f94897)" style="fill: #c2d9ee"/>
    <path d="M 307.027804 411.230335 
L 404.607478 411.230335 
L 404.607478 447.506021 
L 307.027804 447.506021 
L 307.027804 411.230335 
" clip-path="url(#p7681f94897)" style="fill: none"/>
    <path d="M 404.607478 411.230335 
L 502.187152 411.230335 
L 502.187152 447.506021 
L 404.607478 447.506021 
L 404.607478 411.230335 
" clip-path="url(#p7681f94897)" style="fill: none"/>
    <path d="M 502.187152 411.230335 
L 599.766825 411.230335 
L 599.766825 447.506021 
L 502.187152 447.506021 
L 502.187152 411.230335 
" clip-path="url(#p7681f94897)" style="fill: none"/>
    <path d="M 599.766825 411.230335 
L 697.346499 411.230335 
L 697.346499 447.506021 
L 599.766825 447.506021 
L 599.766825 411.230335 
" clip-path="url(#p7681f94897)" style="fill: none"/>
    <path d="M 697.346499 411.230335 
L 794.926172 411.230335 
L 794.926172 447.506021 
L 697.346499 447.506021 
L 697.346499 411.230335 
" clip-path="url(#p7681f94897)" style="fill: none"/>
    <path d="M 794.926172 411.230335 
L 892.505846 411.230335 
L 892.505846 447.506021 
L 794.926172 447.506021 
L 794.926172 411.230335 
" clip-path="url(#p7681f94897)" style="fill: none"/>
    <path d="M 892.505846 411.230335 
L 990.08552 411.230335 
L 990.08552 447.506021 
L 892.505846 447.506021 
L 892.505846 411.230335 
" clip-path="url(#p7681f94897)" style="fill: none"/>
    <path d="M 990.08552 411.230335 
L 1087.665193 411.230335 
L 1087.665193 447.506021 
L 990.08552 447.506021 
L 990.08552 411.230335 
" clip-path="url(#p7681f94897)" style="fill: none"/>
    <path d="M 1087.665193 411.230335 
L 1185.244867 411.230335 
L 1185.244867 447.506021 
L 1087.665193 447.506021 
L 1087.665193 411.230335 
" clip-path="url(#p7681f94897)" style="fill: none"/>
    <path d="M 1185.244867 411.230335 
L 1282.824541 411.230335 
L 1282.824541 447.506021 
L 1185.244867 447.506021 
L 1185.244867 411.230335 
" clip-path="url(#p7681f94897)" style="fill: none"/>
    <path d="M 1282.824541 411.230335 
L 1380.404214 411.230335 
L 1380.404214 447.506021 
L 1282.824541 447.506021 
L 1282.824541 411.230335 
" clip-path="url(#p7681f94897)" style="fill: none"/>
    <path d="M 1380.404214 411.230335 
L 1477.983888 411.230335 
L 1477.983888 447.506021 
L 1380.404214 447.506021 
L 1380.404214 411.230335 
" clip-path="url(#p7681f94897)" style="fill: none"/>
    <path d="M 307.027804 447.506021 
L 404.607478 447.506021 
L 404.607478 483.781706 
L 307.027804 483.781706 
L 307.027804 447.506021 
" clip-path="url(#p7681f94897)" style="fill: none"/>
    <path d="M 404.607478 447.506021 
L 502.187152 447.506021 
L 502.187152 483.781706 
L 404.607478 483.781706 
L 404.607478 447.506021 
" clip-path="url(#p7681f94897)" style="fill: none"/>
    <path d="M 502.187152 447.506021 
L 599.766825 447.506021 
L 599.766825 483.781706 
L 502.187152 483.781706 
L 502.187152 447.506021 
" clip-path="url(#p7681f94897)" style="fill: none"/>
    <path d="M 599.766825 447.506021 
L 697.346499 447.506021 
L 697.346499 483.781706 
L 599.766825 483.781706 
L 599.766825 447.506021 
" clip-path="url(#p7681f94897)" style="fill: none"/>
    <path d="M 697.346499 447.506021 
L 794.926172 447.506021 
L 794.926172 483.781706 
L 697.346499 483.781706 
L 697.346499 447.506021 
" clip-path="url(#p7681f94897)" style="fill: #c2d9ee"/>
    <path d="M 794.926172 447.506021 
L 892.505846 447.506021 
L 892.505846 483.781706 
L 794.926172 483.781706 
L 794.926172 447.506021 
" clip-path="url(#p7681f94897)" style="fill: none"/>
    <path d="M 892.505846 447.506021 
L 990.08552 447.506021 
L 990.08552 483.781706 
L 892.505846 483.781706 
L 892.505846 447.506021 
" clip-path="url(#p7681f94897)" style="fill: none"/>
    <path d="M 990.08552 447.506021 
L 1087.665193 447.506021 
L 1087.665193 483.781706 
L 990.08552 483.781706 
L 990.08552 447.506021 
" clip-path="url(#p7681f94897)" style="fill: none"/>
    <path d="M 1087.665193 447.506021 
L 1185.244867 447.506021 
L 1185.244867 483.781706 
L 1087.665193 483.781706 
L 1087.665193 447.506021 
" clip-path="url(#p7681f94897)" style="fill: none"/>
    <path d="M 1185.244867 447.506021 
L 1282.824541 447.506021 
L 1282.824541 483.781706 
L 1185.244867 483.781706 
L 1185.244867 447.506021 
" clip-path="url(#p7681f94897)" style="fill: none"/>
    <path d="M 1282.824541 447.506021 
L 1380.404214 447.506021 
L 1380.404214 483.781706 
L 1282.824541 483.781706 
L 1282.824541 447.506021 
" clip-path="url(#p7681f94897)" style="fill: none"/>
    <path d="M 1380.404214 447.506021 
L 1477.983888 447.506021 
L 1477.983888 483.781706 
L 1380.404214 483.781706 
L 1380.404214 447.506021 
" clip-path="url(#p7681f94897)" style="fill: #c2d9ee"/>
   </g>
   <g id="matplotlib.axis_1">
    <g id="xtick_1">
     <g id="line2d_1">
      <defs>
       <path id="m2cbaf7164d" d="M 0 0 
L 0 3.5 
" style="stroke: #000000; stroke-width: 0.8"/>
      </defs>
      <g>
       <use xlink:href="#m2cbaf7164d" x="355.817641" y="503.733333" style="stroke: #000000; stroke-width: 0.8"/>
      </g>
     </g>
     <g id="text_1">
      <!-- 0 -->
      <g transform="translate(351.363891 521.371146) scale(0.14 -0.14)">
       <defs>
        <path id="DejaVuSans-30" d="M 2034 4250 
Q 1547 4250 1301 3770 
Q 1056 3291 1056 2328 
Q 1056 1369 1301 889 
Q 1547 409 2034 409 
Q 2525 409 2770 889 
Q 3016 1369 3016 2328 
Q 3016 3291 2770 3770 
Q 2525 4250 2034 4250 
z
M 2034 4750 
Q 2819 4750 3233 4129 
Q 3647 3509 3647 2328 
Q 3647 1150 3233 529 
Q 2819 -91 2034 -91 
Q 1250 -91 836 529 
Q 422 1150 422 2328 
Q 422 3509 836 4129 
Q 1250 4750 2034 4750 
z
" transform="scale(0.015625)"/>
       </defs>
       <use xlink:href="#DejaVuSans-30"/>
      </g>
     </g>
    </g>
    <g id="xtick_2">
     <g id="line2d_2">
      <g>
       <use xlink:href="#m2cbaf7164d" x="453.397315" y="503.733333" style="stroke: #000000; stroke-width: 0.8"/>
      </g>
     </g>
     <g id="text_2">
      <!-- 1 -->
      <g transform="translate(448.943565 521.371146) scale(0.14 -0.14)">
       <defs>
        <path id="DejaVuSans-31" d="M 794 531 
L 1825 531 
L 1825 4091 
L 703 3866 
L 703 4441 
L 1819 4666 
L 2450 4666 
L 2450 531 
L 3481 531 
L 3481 0 
L 794 0 
L 794 531 
z
" transform="scale(0.015625)"/>
       </defs>
       <use xlink:href="#DejaVuSans-31"/>
      </g>
     </g>
    </g>
    <g id="xtick_3">
     <g id="line2d_3">
      <g>
       <use xlink:href="#m2cbaf7164d" x="550.976988" y="503.733333" style="stroke: #000000; stroke-width: 0.8"/>
      </g>
     </g>
     <g id="text_3">
      <!-- 2 -->
      <g transform="translate(546.523238 521.371146) scale(0.14 -0.14)">
       <defs>
        <path id="DejaVuSans-32" d="M 1228 531 
L 3431 531 
L 3431 0 
L 469 0 
L 469 531 
Q 828 903 1448 1529 
Q 2069 2156 2228 2338 
Q 2531 2678 2651 2914 
Q 2772 3150 2772 3378 
Q 2772 3750 2511 3984 
Q 2250 4219 1831 4219 
Q 1534 4219 1204 4116 
Q 875 4013 500 3803 
L 500 4441 
Q 881 4594 1212 4672 
Q 1544 4750 1819 4750 
Q 2544 4750 2975 4387 
Q 3406 4025 3406 3419 
Q 3406 3131 3298 2873 
Q 3191 2616 2906 2266 
Q 2828 2175 2409 1742 
Q 1991 1309 1228 531 
z
" transform="scale(0.015625)"/>
       </defs>
       <use xlink:href="#DejaVuSans-32"/>
      </g>
     </g>
    </g>
    <g id="xtick_4">
     <g id="line2d_4">
      <g>
       <use xlink:href="#m2cbaf7164d" x="648.556662" y="503.733333" style="stroke: #000000; stroke-width: 0.8"/>
      </g>
     </g>
     <g id="text_4">
      <!-- 3 -->
      <g transform="translate(644.102912 521.371146) scale(0.14 -0.14)">
       <defs>
        <path id="DejaVuSans-33" d="M 2597 2516 
Q 3050 2419 3304 2112 
Q 3559 1806 3559 1356 
Q 3559 666 3084 287 
Q 2609 -91 1734 -91 
Q 1441 -91 1130 -33 
Q 819 25 488 141 
L 488 750 
Q 750 597 1062 519 
Q 1375 441 1716 441 
Q 2309 441 2620 675 
Q 2931 909 2931 1356 
Q 2931 1769 2642 2001 
Q 2353 2234 1838 2234 
L 1294 2234 
L 1294 2753 
L 1863 2753 
Q 2328 2753 2575 2939 
Q 2822 3125 2822 3475 
Q 2822 3834 2567 4026 
Q 2313 4219 1838 4219 
Q 1578 4219 1281 4162 
Q 984 4106 628 3988 
L 628 4550 
Q 988 4650 1302 4700 
Q 1616 4750 1894 4750 
Q 2613 4750 3031 4423 
Q 3450 4097 3450 3541 
Q 3450 3153 3228 2886 
Q 3006 2619 2597 2516 
z
" transform="scale(0.015625)"/>
       </defs>
       <use xlink:href="#DejaVuSans-33"/>
      </g>
     </g>
    </g>
    <g id="xtick_5">
     <g id="line2d_5">
      <g>
       <use xlink:href="#m2cbaf7164d" x="746.136336" y="503.733333" style="stroke: #000000; stroke-width: 0.8"/>
      </g>
     </g>
     <g id="text_5">
      <!-- 4 -->
      <g transform="translate(741.682586 521.371146) scale(0.14 -0.14)">
       <defs>
        <path id="DejaVuSans-34" d="M 2419 4116 
L 825 1625 
L 2419 1625 
L 2419 4116 
z
M 2253 4666 
L 3047 4666 
L 3047 1625 
L 3713 1625 
L 3713 1100 
L 3047 1100 
L 3047 0 
L 2419 0 
L 2419 1100 
L 313 1100 
L 313 1709 
L 2253 4666 
z
" transform="scale(0.015625)"/>
       </defs>
       <use xlink:href="#DejaVuSans-34"/>
      </g>
     </g>
    </g>
    <g id="xtick_6">
     <g id="line2d_6">
      <g>
       <use xlink:href="#m2cbaf7164d" x="843.716009" y="503.733333" style="stroke: #000000; stroke-width: 0.8"/>
      </g>
     </g>
     <g id="text_6">
      <!-- 5 -->
      <g transform="translate(839.262259 521.371146) scale(0.14 -0.14)">
       <defs>
        <path id="DejaVuSans-35" d="M 691 4666 
L 3169 4666 
L 3169 4134 
L 1269 4134 
L 1269 2991 
Q 1406 3038 1543 3061 
Q 1681 3084 1819 3084 
Q 2600 3084 3056 2656 
Q 3513 2228 3513 1497 
Q 3513 744 3044 326 
Q 2575 -91 1722 -91 
Q 1428 -91 1123 -41 
Q 819 9 494 109 
L 494 744 
Q 775 591 1075 516 
Q 1375 441 1709 441 
Q 2250 441 2565 725 
Q 2881 1009 2881 1497 
Q 2881 1984 2565 2268 
Q 2250 2553 1709 2553 
Q 1456 2553 1204 2497 
Q 953 2441 691 2322 
L 691 4666 
z
" transform="scale(0.015625)"/>
       </defs>
       <use xlink:href="#DejaVuSans-35"/>
      </g>
     </g>
    </g>
    <g id="xtick_7">
     <g id="line2d_7">
      <g>
       <use xlink:href="#m2cbaf7164d" x="941.295683" y="503.733333" style="stroke: #000000; stroke-width: 0.8"/>
      </g>
     </g>
     <g id="text_7">
      <!-- 6 -->
      <g transform="translate(936.841933 521.371146) scale(0.14 -0.14)">
       <defs>
        <path id="DejaVuSans-36" d="M 2113 2584 
Q 1688 2584 1439 2293 
Q 1191 2003 1191 1497 
Q 1191 994 1439 701 
Q 1688 409 2113 409 
Q 2538 409 2786 701 
Q 3034 994 3034 1497 
Q 3034 2003 2786 2293 
Q 2538 2584 2113 2584 
z
M 3366 4563 
L 3366 3988 
Q 3128 4100 2886 4159 
Q 2644 4219 2406 4219 
Q 1781 4219 1451 3797 
Q 1122 3375 1075 2522 
Q 1259 2794 1537 2939 
Q 1816 3084 2150 3084 
Q 2853 3084 3261 2657 
Q 3669 2231 3669 1497 
Q 3669 778 3244 343 
Q 2819 -91 2113 -91 
Q 1303 -91 875 529 
Q 447 1150 447 2328 
Q 447 3434 972 4092 
Q 1497 4750 2381 4750 
Q 2619 4750 2861 4703 
Q 3103 4656 3366 4563 
z
" transform="scale(0.015625)"/>
       </defs>
       <use xlink:href="#DejaVuSans-36"/>
      </g>
     </g>
    </g>
    <g id="xtick_8">
     <g id="line2d_8">
      <g>
       <use xlink:href="#m2cbaf7164d" x="1038.875357" y="503.733333" style="stroke: #000000; stroke-width: 0.8"/>
      </g>
     </g>
     <g id="text_8">
      <!-- 7 -->
      <g transform="translate(1034.421607 521.371146) scale(0.14 -0.14)">
       <defs>
        <path id="DejaVuSans-37" d="M 525 4666 
L 3525 4666 
L 3525 4397 
L 1831 0 
L 1172 0 
L 2766 4134 
L 525 4134 
L 525 4666 
z
" transform="scale(0.015625)"/>
       </defs>
       <use xlink:href="#DejaVuSans-37"/>
      </g>
     </g>
    </g>
    <g id="xtick_9">
     <g id="line2d_9">
      <g>
       <use xlink:href="#m2cbaf7164d" x="1136.45503" y="503.733333" style="stroke: #000000; stroke-width: 0.8"/>
      </g>
     </g>
     <g id="text_9">
      <!-- 8 -->
      <g transform="translate(1132.00128 521.371146) scale(0.14 -0.14)">
       <defs>
        <path id="DejaVuSans-38" d="M 2034 2216 
Q 1584 2216 1326 1975 
Q 1069 1734 1069 1313 
Q 1069 891 1326 650 
Q 1584 409 2034 409 
Q 2484 409 2743 651 
Q 3003 894 3003 1313 
Q 3003 1734 2745 1975 
Q 2488 2216 2034 2216 
z
M 1403 2484 
Q 997 2584 770 2862 
Q 544 3141 544 3541 
Q 544 4100 942 4425 
Q 1341 4750 2034 4750 
Q 2731 4750 3128 4425 
Q 3525 4100 3525 3541 
Q 3525 3141 3298 2862 
Q 3072 2584 2669 2484 
Q 3125 2378 3379 2068 
Q 3634 1759 3634 1313 
Q 3634 634 3220 271 
Q 2806 -91 2034 -91 
Q 1263 -91 848 271 
Q 434 634 434 1313 
Q 434 1759 690 2068 
Q 947 2378 1403 2484 
z
M 1172 3481 
Q 1172 3119 1398 2916 
Q 1625 2713 2034 2713 
Q 2441 2713 2670 2916 
Q 2900 3119 2900 3481 
Q 2900 3844 2670 4047 
Q 2441 4250 2034 4250 
Q 1625 4250 1398 4047 
Q 1172 3844 1172 3481 
z
" transform="scale(0.015625)"/>
       </defs>
       <use xlink:href="#DejaVuSans-38"/>
      </g>
     </g>
    </g>
    <g id="xtick_10">
     <g id="line2d_10">
      <g>
       <use xlink:href="#m2cbaf7164d" x="1234.034704" y="503.733333" style="stroke: #000000; stroke-width: 0.8"/>
      </g>
     </g>
     <g id="text_10">
      <!-- 9 -->
      <g transform="translate(1229.580954 521.371146) scale(0.14 -0.14)">
       <defs>
        <path id="DejaVuSans-39" d="M 703 97 
L 703 672 
Q 941 559 1184 500 
Q 1428 441 1663 441 
Q 2288 441 2617 861 
Q 2947 1281 2994 2138 
Q 2813 1869 2534 1725 
Q 2256 1581 1919 1581 
Q 1219 1581 811 2004 
Q 403 2428 403 3163 
Q 403 3881 828 4315 
Q 1253 4750 1959 4750 
Q 2769 4750 3195 4129 
Q 3622 3509 3622 2328 
Q 3622 1225 3098 567 
Q 2575 -91 1691 -91 
Q 1453 -91 1209 -44 
Q 966 3 703 97 
z
M 1959 2075 
Q 2384 2075 2632 2365 
Q 2881 2656 2881 3163 
Q 2881 3666 2632 3958 
Q 2384 4250 1959 4250 
Q 1534 4250 1286 3958 
Q 1038 3666 1038 3163 
Q 1038 2656 1286 2365 
Q 1534 2075 1959 2075 
z
" transform="scale(0.015625)"/>
       </defs>
       <use xlink:href="#DejaVuSans-39"/>
      </g>
     </g>
    </g>
    <g id="xtick_11">
     <g id="line2d_11">
      <g>
       <use xlink:href="#m2cbaf7164d" x="1331.614378" y="503.733333" style="stroke: #000000; stroke-width: 0.8"/>
      </g>
     </g>
     <g id="text_11">
      <!-- 10 -->
      <g transform="translate(1322.706878 521.371146) scale(0.14 -0.14)">
       <use xlink:href="#DejaVuSans-31"/>
       <use xlink:href="#DejaVuSans-30" x="63.623047"/>
      </g>
     </g>
    </g>
    <g id="xtick_12">
     <g id="line2d_12">
      <g>
       <use xlink:href="#m2cbaf7164d" x="1429.194051" y="503.733333" style="stroke: #000000; stroke-width: 0.8"/>
      </g>
     </g>
     <g id="text_12">
      <!-- 11 -->
      <g transform="translate(1420.286551 521.371146) scale(0.14 -0.14)">
       <use xlink:href="#DejaVuSans-31"/>
       <use xlink:href="#DejaVuSans-31" x="63.623047"/>
      </g>
     </g>
    </g>
    <g id="text_13">
     <!-- Months Since Winter Solstice -->
     <g transform="translate(791.027721 538.920521) scale(0.14 -0.14)">
      <defs>
       <path id="DejaVuSans-4d" d="M 628 4666 
L 1569 4666 
L 2759 1491 
L 3956 4666 
L 4897 4666 
L 4897 0 
L 4281 0 
L 4281 4097 
L 3078 897 
L 2444 897 
L 1241 4097 
L 1241 0 
L 628 0 
L 628 4666 
z
" transform="scale(0.015625)"/>
       <path id="DejaVuSans-6f" d="M 1959 3097 
Q 1497 3097 1228 2736 
Q 959 2375 959 1747 
Q 959 1119 1226 758 
Q 1494 397 1959 397 
Q 2419 397 2687 759 
Q 2956 1122 2956 1747 
Q 2956 2369 2687 2733 
Q 2419 3097 1959 3097 
z
M 1959 3584 
Q 2709 3584 3137 3096 
Q 3566 2609 3566 1747 
Q 3566 888 3137 398 
Q 2709 -91 1959 -91 
Q 1206 -91 779 398 
Q 353 888 353 1747 
Q 353 2609 779 3096 
Q 1206 3584 1959 3584 
z
" transform="scale(0.015625)"/>
       <path id="DejaVuSans-6e" d="M 3513 2113 
L 3513 0 
L 2938 0 
L 2938 2094 
Q 2938 2591 2744 2837 
Q 2550 3084 2163 3084 
Q 1697 3084 1428 2787 
Q 1159 2491 1159 1978 
L 1159 0 
L 581 0 
L 581 3500 
L 1159 3500 
L 1159 2956 
Q 1366 3272 1645 3428 
Q 1925 3584 2291 3584 
Q 2894 3584 3203 3211 
Q 3513 2838 3513 2113 
z
" transform="scale(0.015625)"/>
       <path id="DejaVuSans-74" d="M 1172 4494 
L 1172 3500 
L 2356 3500 
L 2356 3053 
L 1172 3053 
L 1172 1153 
Q 1172 725 1289 603 
Q 1406 481 1766 481 
L 2356 481 
L 2356 0 
L 1766 0 
Q 1100 0 847 248 
Q 594 497 594 1153 
L 594 3053 
L 172 3053 
L 172 3500 
L 594 3500 
L 594 4494 
L 1172 4494 
z
" transform="scale(0.015625)"/>
       <path id="DejaVuSans-68" d="M 3513 2113 
L 3513 0 
L 2938 0 
L 2938 2094 
Q 2938 2591 2744 2837 
Q 2550 3084 2163 3084 
Q 1697 3084 1428 2787 
Q 1159 2491 1159 1978 
L 1159 0 
L 581 0 
L 581 4863 
L 1159 4863 
L 1159 2956 
Q 1366 3272 1645 3428 
Q 1925 3584 2291 3584 
Q 2894 3584 3203 3211 
Q 3513 2838 3513 2113 
z
" transform="scale(0.015625)"/>
       <path id="DejaVuSans-73" d="M 2834 3397 
L 2834 2853 
Q 2591 2978 2328 3040 
Q 2066 3103 1784 3103 
Q 1356 3103 1142 2972 
Q 928 2841 928 2578 
Q 928 2378 1081 2264 
Q 1234 2150 1697 2047 
L 1894 2003 
Q 2506 1872 2764 1633 
Q 3022 1394 3022 966 
Q 3022 478 2636 193 
Q 2250 -91 1575 -91 
Q 1294 -91 989 -36 
Q 684 19 347 128 
L 347 722 
Q 666 556 975 473 
Q 1284 391 1588 391 
Q 1994 391 2212 530 
Q 2431 669 2431 922 
Q 2431 1156 2273 1281 
Q 2116 1406 1581 1522 
L 1381 1569 
Q 847 1681 609 1914 
Q 372 2147 372 2553 
Q 372 3047 722 3315 
Q 1072 3584 1716 3584 
Q 2034 3584 2315 3537 
Q 2597 3491 2834 3397 
z
" transform="scale(0.015625)"/>
       <path id="DejaVuSans-20" transform="scale(0.015625)"/>
       <path id="DejaVuSans-53" d="M 3425 4513 
L 3425 3897 
Q 3066 4069 2747 4153 
Q 2428 4238 2131 4238 
Q 1616 4238 1336 4038 
Q 1056 3838 1056 3469 
Q 1056 3159 1242 3001 
Q 1428 2844 1947 2747 
L 2328 2669 
Q 3034 2534 3370 2195 
Q 3706 1856 3706 1288 
Q 3706 609 3251 259 
Q 2797 -91 1919 -91 
Q 1588 -91 1214 -16 
Q 841 59 441 206 
L 441 856 
Q 825 641 1194 531 
Q 1563 422 1919 422 
Q 2459 422 2753 634 
Q 3047 847 3047 1241 
Q 3047 1584 2836 1778 
Q 2625 1972 2144 2069 
L 1759 2144 
Q 1053 2284 737 2584 
Q 422 2884 422 3419 
Q 422 4038 858 4394 
Q 1294 4750 2059 4750 
Q 2388 4750 2728 4690 
Q 3069 4631 3425 4513 
z
" transform="scale(0.015625)"/>
       <path id="DejaVuSans-69" d="M 603 3500 
L 1178 3500 
L 1178 0 
L 603 0 
L 603 3500 
z
M 603 4863 
L 1178 4863 
L 1178 4134 
L 603 4134 
L 603 4863 
z
" transform="scale(0.015625)"/>
       <path id="DejaVuSans-63" d="M 3122 3366 
L 3122 2828 
Q 2878 2963 2633 3030 
Q 2388 3097 2138 3097 
Q 1578 3097 1268 2742 
Q 959 2388 959 1747 
Q 959 1106 1268 751 
Q 1578 397 2138 397 
Q 2388 397 2633 464 
Q 2878 531 3122 666 
L 3122 134 
Q 2881 22 2623 -34 
Q 2366 -91 2075 -91 
Q 1284 -91 818 406 
Q 353 903 353 1747 
Q 353 2603 823 3093 
Q 1294 3584 2113 3584 
Q 2378 3584 2631 3529 
Q 2884 3475 3122 3366 
z
" transform="scale(0.015625)"/>
       <path id="DejaVuSans-65" d="M 3597 1894 
L 3597 1613 
L 953 1613 
Q 991 1019 1311 708 
Q 1631 397 2203 397 
Q 2534 397 2845 478 
Q 3156 559 3463 722 
L 3463 178 
Q 3153 47 2828 -22 
Q 2503 -91 2169 -91 
Q 1331 -91 842 396 
Q 353 884 353 1716 
Q 353 2575 817 3079 
Q 1281 3584 2069 3584 
Q 2775 3584 3186 3129 
Q 3597 2675 3597 1894 
z
M 3022 2063 
Q 3016 2534 2758 2815 
Q 2500 3097 2075 3097 
Q 1594 3097 1305 2825 
Q 1016 2553 972 2059 
L 3022 2063 
z
" transform="scale(0.015625)"/>
       <path id="DejaVuSans-57" d="M 213 4666 
L 850 4666 
L 1831 722 
L 2809 4666 
L 3519 4666 
L 4500 722 
L 5478 4666 
L 6119 4666 
L 4947 0 
L 4153 0 
L 3169 4050 
L 2175 0 
L 1381 0 
L 213 4666 
z
" transform="scale(0.015625)"/>
       <path id="DejaVuSans-72" d="M 2631 2963 
Q 2534 3019 2420 3045 
Q 2306 3072 2169 3072 
Q 1681 3072 1420 2755 
Q 1159 2438 1159 1844 
L 1159 0 
L 581 0 
L 581 3500 
L 1159 3500 
L 1159 2956 
Q 1341 3275 1631 3429 
Q 1922 3584 2338 3584 
Q 2397 3584 2469 3576 
Q 2541 3569 2628 3553 
L 2631 2963 
z
" transform="scale(0.015625)"/>
       <path id="DejaVuSans-6c" d="M 603 4863 
L 1178 4863 
L 1178 0 
L 603 0 
L 603 4863 
z
" transform="scale(0.015625)"/>
      </defs>
      <use xlink:href="#DejaVuSans-4d"/>
      <use xlink:href="#DejaVuSans-6f" x="86.279297"/>
      <use xlink:href="#DejaVuSans-6e" x="147.460938"/>
      <use xlink:href="#DejaVuSans-74" x="210.839844"/>
      <use xlink:href="#DejaVuSans-68" x="250.048828"/>
      <use xlink:href="#DejaVuSans-73" x="313.427734"/>
      <use xlink:href="#DejaVuSans-20" x="365.527344"/>
      <use xlink:href="#DejaVuSans-53" x="397.314453"/>
      <use xlink:href="#DejaVuSans-69" x="460.791016"/>
      <use xlink:href="#DejaVuSans-6e" x="488.574219"/>
      <use xlink:href="#DejaVuSans-63" x="551.953125"/>
      <use xlink:href="#DejaVuSans-65" x="606.933594"/>
      <use xlink:href="#DejaVuSans-20" x="668.457031"/>
      <use xlink:href="#DejaVuSans-57" x="700.244141"/>
      <use xlink:href="#DejaVuSans-69" x="796.871094"/>
      <use xlink:href="#DejaVuSans-6e" x="824.654297"/>
      <use xlink:href="#DejaVuSans-74" x="888.033203"/>
      <use xlink:href="#DejaVuSans-65" x="927.242188"/>
      <use xlink:href="#DejaVuSans-72" x="988.765625"/>
      <use xlink:href="#DejaVuSans-20" x="1029.878906"/>
      <use xlink:href="#DejaVuSans-53" x="1061.666016"/>
      <use xlink:href="#DejaVuSans-6f" x="1125.142578"/>
      <use xlink:href="#DejaVuSans-6c" x="1186.324219"/>
      <use xlink:href="#DejaVuSans-73" x="1214.107422"/>
      <use xlink:href="#DejaVuSans-74" x="1266.207031"/>
      <use xlink:href="#DejaVuSans-69" x="1305.416016"/>
      <use xlink:href="#DejaVuSans-63" x="1333.199219"/>
      <use xlink:href="#DejaVuSans-65" x="1388.179688"/>
     </g>
    </g>
   </g>
   <g id="matplotlib.axis_2">
    <g id="ytick_1">
     <g id="line2d_13">
      <defs>
       <path id="mca6bcf6e8d" d="M 0 0 
L -3.5 0 
" style="stroke: #000000; stroke-width: 0.8"/>
      </defs>
      <g>
       <use xlink:href="#mca6bcf6e8d" x="248.48" y="102.887008" style="stroke: #000000; stroke-width: 0.8"/>
      </g>
     </g>
     <g id="text_14">
      <!-- 0-25 -->
      <g transform="translate(209.706563 108.205915) scale(0.14 -0.14)">
       <defs>
        <path id="DejaVuSans-2d" d="M 313 2009 
L 1997 2009 
L 1997 1497 
L 313 1497 
L 313 2009 
z
" transform="scale(0.015625)"/>
       </defs>
       <use xlink:href="#DejaVuSans-30"/>
       <use xlink:href="#DejaVuSans-2d" x="63.623047"/>
       <use xlink:href="#DejaVuSans-32" x="99.707031"/>
       <use xlink:href="#DejaVuSans-35" x="163.330078"/>
      </g>
     </g>
    </g>
    <g id="ytick_2">
     <g id="line2d_14">
      <g>
       <use xlink:href="#mca6bcf6e8d" x="248.48" y="139.162694" style="stroke: #000000; stroke-width: 0.8"/>
      </g>
     </g>
     <g id="text_15">
      <!-- 25-50 -->
      <g transform="translate(200.799063 144.4816) scale(0.14 -0.14)">
       <use xlink:href="#DejaVuSans-32"/>
       <use xlink:href="#DejaVuSans-35" x="63.623047"/>
       <use xlink:href="#DejaVuSans-2d" x="127.246094"/>
       <use xlink:href="#DejaVuSans-35" x="163.330078"/>
       <use xlink:href="#DejaVuSans-30" x="226.953125"/>
      </g>
     </g>
    </g>
    <g id="ytick_3">
     <g id="line2d_15">
      <g>
       <use xlink:href="#mca6bcf6e8d" x="248.48" y="175.438379" style="stroke: #000000; stroke-width: 0.8"/>
      </g>
     </g>
     <g id="text_16">
      <!-- 50-75 -->
      <g transform="translate(200.799063 180.757286) scale(0.14 -0.14)">
       <use xlink:href="#DejaVuSans-35"/>
       <use xlink:href="#DejaVuSans-30" x="63.623047"/>
       <use xlink:href="#DejaVuSans-2d" x="127.246094"/>
       <use xlink:href="#DejaVuSans-37" x="163.330078"/>
       <use xlink:href="#DejaVuSans-35" x="226.953125"/>
      </g>
     </g>
    </g>
    <g id="ytick_4">
     <g id="line2d_16">
      <g>
       <use xlink:href="#mca6bcf6e8d" x="248.48" y="211.714065" style="stroke: #000000; stroke-width: 0.8"/>
      </g>
     </g>
     <g id="text_17">
      <!-- 75-100 -->
      <g transform="translate(191.891563 217.032971) scale(0.14 -0.14)">
       <use xlink:href="#DejaVuSans-37"/>
       <use xlink:href="#DejaVuSans-35" x="63.623047"/>
       <use xlink:href="#DejaVuSans-2d" x="127.246094"/>
       <use xlink:href="#DejaVuSans-31" x="163.330078"/>
       <use xlink:href="#DejaVuSans-30" x="226.953125"/>
       <use xlink:href="#DejaVuSans-30" x="290.576172"/>
      </g>
     </g>
    </g>
    <g id="ytick_5">
     <g id="line2d_17">
      <g>
       <use xlink:href="#mca6bcf6e8d" x="248.48" y="247.98975" style="stroke: #000000; stroke-width: 0.8"/>
      </g>
     </g>
     <g id="text_18">
      <!-- 100-125 -->
      <g transform="translate(182.984063 253.308657) scale(0.14 -0.14)">
       <use xlink:href="#DejaVuSans-31"/>
       <use xlink:href="#DejaVuSans-30" x="63.623047"/>
       <use xlink:href="#DejaVuSans-30" x="127.246094"/>
       <use xlink:href="#DejaVuSans-2d" x="190.869141"/>
       <use xlink:href="#DejaVuSans-31" x="226.953125"/>
       <use xlink:href="#DejaVuSans-32" x="290.576172"/>
       <use xlink:href="#DejaVuSans-35" x="354.199219"/>
      </g>
     </g>
    </g>
    <g id="ytick_6">
     <g id="line2d_18">
      <g>
       <use xlink:href="#mca6bcf6e8d" x="248.48" y="284.265436" style="stroke: #000000; stroke-width: 0.8"/>
      </g>
     </g>
     <g id="text_19">
      <!-- 125-150 -->
      <g transform="translate(182.984063 289.584342) scale(0.14 -0.14)">
       <use xlink:href="#DejaVuSans-31"/>
       <use xlink:href="#DejaVuSans-32" x="63.623047"/>
       <use xlink:href="#DejaVuSans-35" x="127.246094"/>
       <use xlink:href="#DejaVuSans-2d" x="190.869141"/>
       <use xlink:href="#DejaVuSans-31" x="226.953125"/>
       <use xlink:href="#DejaVuSans-35" x="290.576172"/>
       <use xlink:href="#DejaVuSans-30" x="354.199219"/>
      </g>
     </g>
    </g>
    <g id="ytick_7">
     <g id="line2d_19">
      <g>
       <use xlink:href="#mca6bcf6e8d" x="248.48" y="320.541121" style="stroke: #000000; stroke-width: 0.8"/>
      </g>
     </g>
     <g id="text_20">
      <!-- 150-175 -->
      <g transform="translate(182.984063 325.860028) scale(0.14 -0.14)">
       <use xlink:href="#DejaVuSans-31"/>
       <use xlink:href="#DejaVuSans-35" x="63.623047"/>
       <use xlink:href="#DejaVuSans-30" x="127.246094"/>
       <use xlink:href="#DejaVuSans-2d" x="190.869141"/>
       <use xlink:href="#DejaVuSans-31" x="226.953125"/>
       <use xlink:href="#DejaVuSans-37" x="290.576172"/>
       <use xlink:href="#DejaVuSans-35" x="354.199219"/>
      </g>
     </g>
    </g>
    <g id="ytick_8">
     <g id="line2d_20">
      <g>
       <use xlink:href="#mca6bcf6e8d" x="248.48" y="356.816807" style="stroke: #000000; stroke-width: 0.8"/>
      </g>
     </g>
     <g id="text_21">
      <!-- 175-200 -->
      <g transform="translate(182.984063 362.135713) scale(0.14 -0.14)">
       <use xlink:href="#DejaVuSans-31"/>
       <use xlink:href="#DejaVuSans-37" x="63.623047"/>
       <use xlink:href="#DejaVuSans-35" x="127.246094"/>
       <use xlink:href="#DejaVuSans-2d" x="190.869141"/>
       <use xlink:href="#DejaVuSans-32" x="226.953125"/>
       <use xlink:href="#DejaVuSans-30" x="290.576172"/>
       <use xlink:href="#DejaVuSans-30" x="354.199219"/>
      </g>
     </g>
    </g>
    <g id="ytick_9">
     <g id="line2d_21">
      <g>
       <use xlink:href="#mca6bcf6e8d" x="248.48" y="393.092492" style="stroke: #000000; stroke-width: 0.8"/>
      </g>
     </g>
     <g id="text_22">
      <!-- 200-225 -->
      <g transform="translate(182.984063 398.411399) scale(0.14 -0.14)">
       <use xlink:href="#DejaVuSans-32"/>
       <use xlink:href="#DejaVuSans-30" x="63.623047"/>
       <use xlink:href="#DejaVuSans-30" x="127.246094"/>
       <use xlink:href="#DejaVuSans-2d" x="190.869141"/>
       <use xlink:href="#DejaVuSans-32" x="226.953125"/>
       <use xlink:href="#DejaVuSans-32" x="290.576172"/>
       <use xlink:href="#DejaVuSans-35" x="354.199219"/>
      </g>
     </g>
    </g>
    <g id="ytick_10">
     <g id="line2d_22">
      <g>
       <use xlink:href="#mca6bcf6e8d" x="248.48" y="429.368178" style="stroke: #000000; stroke-width: 0.8"/>
      </g>
     </g>
     <g id="text_23">
      <!-- 225-250 -->
      <g transform="translate(182.984063 434.687084) scale(0.14 -0.14)">
       <use xlink:href="#DejaVuSans-32"/>
       <use xlink:href="#DejaVuSans-32" x="63.623047"/>
       <use xlink:href="#DejaVuSans-35" x="127.246094"/>
       <use xlink:href="#DejaVuSans-2d" x="190.869141"/>
       <use xlink:href="#DejaVuSans-32" x="226.953125"/>
       <use xlink:href="#DejaVuSans-35" x="290.576172"/>
       <use xlink:href="#DejaVuSans-30" x="354.199219"/>
      </g>
     </g>
    </g>
    <g id="ytick_11">
     <g id="line2d_23">
      <g>
       <use xlink:href="#mca6bcf6e8d" x="248.48" y="465.643864" style="stroke: #000000; stroke-width: 0.8"/>
      </g>
     </g>
     <g id="text_24">
      <!-- 250-275 -->
      <g transform="translate(182.984063 470.96277) scale(0.14 -0.14)">
       <use xlink:href="#DejaVuSans-32"/>
       <use xlink:href="#DejaVuSans-35" x="63.623047"/>
       <use xlink:href="#DejaVuSans-30" x="127.246094"/>
       <use xlink:href="#DejaVuSans-2d" x="190.869141"/>
       <use xlink:href="#DejaVuSans-32" x="226.953125"/>
       <use xlink:href="#DejaVuSans-37" x="290.576172"/>
       <use xlink:href="#DejaVuSans-35" x="354.199219"/>
      </g>
     </g>
    </g>
    <g id="ytick_12">
     <g id="line2d_24">
      <g>
       <use xlink:href="#mca6bcf6e8d" x="248.48" y="501.919549" style="stroke: #000000; stroke-width: 0.8"/>
      </g>
     </g>
     <g id="text_25">
      <!-- 275-300 -->
      <g transform="translate(182.984063 507.238455) scale(0.14 -0.14)">
       <use xlink:href="#DejaVuSans-32"/>
       <use xlink:href="#DejaVuSans-37" x="63.623047"/>
       <use xlink:href="#DejaVuSans-35" x="127.246094"/>
       <use xlink:href="#DejaVuSans-2d" x="190.869141"/>
       <use xlink:href="#DejaVuSans-33" x="226.953125"/>
       <use xlink:href="#DejaVuSans-30" x="290.576172"/>
       <use xlink:href="#DejaVuSans-30" x="354.199219"/>
      </g>
     </g>
    </g>
    <g id="text_26">
     <!-- Depth (m) -->
     <g transform="translate(176.0725 320.092311) rotate(-90) scale(0.14 -0.14)">
      <defs>
       <path id="DejaVuSans-44" d="M 1259 4147 
L 1259 519 
L 2022 519 
Q 2988 519 3436 956 
Q 3884 1394 3884 2338 
Q 3884 3275 3436 3711 
Q 2988 4147 2022 4147 
L 1259 4147 
z
M 628 4666 
L 1925 4666 
Q 3281 4666 3915 4102 
Q 4550 3538 4550 2338 
Q 4550 1131 3912 565 
Q 3275 0 1925 0 
L 628 0 
L 628 4666 
z
" transform="scale(0.015625)"/>
       <path id="DejaVuSans-70" d="M 1159 525 
L 1159 -1331 
L 581 -1331 
L 581 3500 
L 1159 3500 
L 1159 2969 
Q 1341 3281 1617 3432 
Q 1894 3584 2278 3584 
Q 2916 3584 3314 3078 
Q 3713 2572 3713 1747 
Q 3713 922 3314 415 
Q 2916 -91 2278 -91 
Q 1894 -91 1617 61 
Q 1341 213 1159 525 
z
M 3116 1747 
Q 3116 2381 2855 2742 
Q 2594 3103 2138 3103 
Q 1681 3103 1420 2742 
Q 1159 2381 1159 1747 
Q 1159 1113 1420 752 
Q 1681 391 2138 391 
Q 2594 391 2855 752 
Q 3116 1113 3116 1747 
z
" transform="scale(0.015625)"/>
       <path id="DejaVuSans-28" d="M 1984 4856 
Q 1566 4138 1362 3434 
Q 1159 2731 1159 2009 
Q 1159 1288 1364 580 
Q 1569 -128 1984 -844 
L 1484 -844 
Q 1016 -109 783 600 
Q 550 1309 550 2009 
Q 550 2706 781 3412 
Q 1013 4119 1484 4856 
L 1984 4856 
z
" transform="scale(0.015625)"/>
       <path id="DejaVuSans-6d" d="M 3328 2828 
Q 3544 3216 3844 3400 
Q 4144 3584 4550 3584 
Q 5097 3584 5394 3201 
Q 5691 2819 5691 2113 
L 5691 0 
L 5113 0 
L 5113 2094 
Q 5113 2597 4934 2840 
Q 4756 3084 4391 3084 
Q 3944 3084 3684 2787 
Q 3425 2491 3425 1978 
L 3425 0 
L 2847 0 
L 2847 2094 
Q 2847 2600 2669 2842 
Q 2491 3084 2119 3084 
Q 1678 3084 1418 2786 
Q 1159 2488 1159 1978 
L 1159 0 
L 581 0 
L 581 3500 
L 1159 3500 
L 1159 2956 
Q 1356 3278 1631 3431 
Q 1906 3584 2284 3584 
Q 2666 3584 2933 3390 
Q 3200 3197 3328 2828 
z
" transform="scale(0.015625)"/>
       <path id="DejaVuSans-29" d="M 513 4856 
L 1013 4856 
Q 1481 4119 1714 3412 
Q 1947 2706 1947 2009 
Q 1947 1309 1714 600 
Q 1481 -109 1013 -844 
L 513 -844 
Q 928 -128 1133 580 
Q 1338 1288 1338 2009 
Q 1338 2731 1133 3434 
Q 928 4138 513 4856 
z
" transform="scale(0.015625)"/>
      </defs>
      <use xlink:href="#DejaVuSans-44"/>
      <use xlink:href="#DejaVuSans-65" x="77.001953"/>
      <use xlink:href="#DejaVuSans-70" x="138.525391"/>
      <use xlink:href="#DejaVuSans-74" x="202.001953"/>
      <use xlink:href="#DejaVuSans-68" x="241.210938"/>
      <use xlink:href="#DejaVuSans-20" x="304.589844"/>
      <use xlink:href="#DejaVuSans-28" x="336.376953"/>
      <use xlink:href="#DejaVuSans-6d" x="375.390625"/>
      <use xlink:href="#DejaVuSans-29" x="472.802734"/>
     </g>
    </g>
   </g>
   <g id="patch_3">
    <path d="M 248.48 503.733333 
L 248.48 64.797538 
" style="fill: none; stroke: #000000; stroke-width: 0.8; stroke-linejoin: miter; stroke-linecap: square"/>
   </g>
   <g id="patch_4">
    <path d="M 248.48 503.733333 
L 1536.531692 503.733333 
" style="fill: none; stroke: #000000; stroke-width: 0.8; stroke-linejoin: miter; stroke-linecap: square"/>
   </g>
  </g>
  <g id="axes_2">
   <g id="patch_5">
    <path d="M 248.48 57.357949 
L 1536.531692 57.357949 
L 1536.531692 20.16 
L 248.48 20.16 
z
" style="fill: #ffffff"/>
   </g>
   <g id="patch_6">
    <path d="M 307.027804 57.357949 
L 404.607478 57.357949 
L 404.607478 48.475333 
L 307.027804 48.475333 
z
" clip-path="url(#pe084c121e0)" style="fill: #4682b4; fill-opacity: 0.75; stroke: #000000; stroke-linejoin: miter"/>
   </g>
   <g id="patch_7">
    <path d="M 404.607478 57.357949 
L 502.187152 57.357949 
L 502.187152 48.451369 
L 404.607478 48.451369 
z
" clip-path="url(#pe084c121e0)" style="fill: #4682b4; fill-opacity: 0.75; stroke: #000000; stroke-linejoin: miter"/>
   </g>
   <g id="patch_8">
    <path d="M 502.187152 57.357949 
L 599.766825 57.357949 
L 599.766825 46.294619 
L 502.187152 46.294619 
z
" clip-path="url(#pe084c121e0)" style="fill: #4682b4; fill-opacity: 0.75; stroke: #000000; stroke-linejoin: miter"/>
   </g>
   <g id="patch_9">
    <path d="M 599.766825 57.357949 
L 697.346499 57.357949 
L 697.346499 43.706519 
L 599.766825 43.706519 
z
" clip-path="url(#pe084c121e0)" style="fill: #4682b4; fill-opacity: 0.75; stroke: #000000; stroke-linejoin: miter"/>
   </g>
   <g id="patch_10">
    <path d="M 697.346499 57.357949 
L 794.926172 57.357949 
L 794.926172 28.345666 
L 697.346499 28.345666 
z
" clip-path="url(#pe084c121e0)" style="fill: #4682b4; fill-opacity: 0.75; stroke: #000000; stroke-linejoin: miter"/>
   </g>
   <g id="patch_11">
    <path d="M 794.926172 57.357949 
L 892.505846 57.357949 
L 892.505846 34.712072 
L 794.926172 34.712072 
z
" clip-path="url(#pe084c121e0)" style="fill: #4682b4; fill-opacity: 0.75; stroke: #000000; stroke-linejoin: miter"/>
   </g>
   <g id="patch_12">
    <path d="M 892.505846 57.357949 
L 990.08552 57.357949 
L 990.08552 28.737076 
L 892.505846 28.737076 
z
" clip-path="url(#pe084c121e0)" style="fill: #4682b4; fill-opacity: 0.75; stroke: #000000; stroke-linejoin: miter"/>
   </g>
   <g id="patch_13">
    <path d="M 990.08552 57.357949 
L 1087.665193 57.357949 
L 1087.665193 32.547334 
L 990.08552 32.547334 
z
" clip-path="url(#pe084c121e0)" style="fill: #4682b4; fill-opacity: 0.75; stroke: #000000; stroke-linejoin: miter"/>
   </g>
   <g id="patch_14">
    <path d="M 1087.665193 57.357949 
L 1185.244867 57.357949 
L 1185.244867 21.931331 
L 1087.665193 21.931331 
z
" clip-path="url(#pe084c121e0)" style="fill: #4682b4; fill-opacity: 0.75; stroke: #000000; stroke-linejoin: miter"/>
   </g>
   <g id="patch_15">
    <path d="M 1185.244867 57.357949 
L 1282.824541 57.357949 
L 1282.824541 28.369629 
L 1185.244867 28.369629 
z
" clip-path="url(#pe084c121e0)" style="fill: #4682b4; fill-opacity: 0.75; stroke: #000000; stroke-linejoin: miter"/>
   </g>
   <g id="patch_16">
    <path d="M 1282.824541 57.357949 
L 1380.404214 57.357949 
L 1380.404214 41.653613 
L 1282.824541 41.653613 
z
" clip-path="url(#pe084c121e0)" style="fill: #4682b4; fill-opacity: 0.75; stroke: #000000; stroke-linejoin: miter"/>
   </g>
   <g id="patch_17">
    <path d="M 1380.404214 57.357949 
L 1477.983888 57.357949 
L 1477.983888 32.020129 
L 1380.404214 32.020129 
z
" clip-path="url(#pe084c121e0)" style="fill: #4682b4; fill-opacity: 0.75; stroke: #000000; stroke-linejoin: miter"/>
   </g>
   <g id="matplotlib.axis_3">
    <g id="xtick_13">
     <g id="line2d_25">
      <g>
       <use xlink:href="#m2cbaf7164d" x="355.817641" y="57.357949" style="stroke: #000000; stroke-width: 0.8"/>
      </g>
     </g>
    </g>
    <g id="xtick_14">
     <g id="line2d_26">
      <g>
       <use xlink:href="#m2cbaf7164d" x="453.397315" y="57.357949" style="stroke: #000000; stroke-width: 0.8"/>
      </g>
     </g>
    </g>
    <g id="xtick_15">
     <g id="line2d_27">
      <g>
       <use xlink:href="#m2cbaf7164d" x="550.976988" y="57.357949" style="stroke: #000000; stroke-width: 0.8"/>
      </g>
     </g>
    </g>
    <g id="xtick_16">
     <g id="line2d_28">
      <g>
       <use xlink:href="#m2cbaf7164d" x="648.556662" y="57.357949" style="stroke: #000000; stroke-width: 0.8"/>
      </g>
     </g>
    </g>
    <g id="xtick_17">
     <g id="line2d_29">
      <g>
       <use xlink:href="#m2cbaf7164d" x="746.136336" y="57.357949" style="stroke: #000000; stroke-width: 0.8"/>
      </g>
     </g>
    </g>
    <g id="xtick_18">
     <g id="line2d_30">
      <g>
       <use xlink:href="#m2cbaf7164d" x="843.716009" y="57.357949" style="stroke: #000000; stroke-width: 0.8"/>
      </g>
     </g>
    </g>
    <g id="xtick_19">
     <g id="line2d_31">
      <g>
       <use xlink:href="#m2cbaf7164d" x="941.295683" y="57.357949" style="stroke: #000000; stroke-width: 0.8"/>
      </g>
     </g>
    </g>
    <g id="xtick_20">
     <g id="line2d_32">
      <g>
       <use xlink:href="#m2cbaf7164d" x="1038.875357" y="57.357949" style="stroke: #000000; stroke-width: 0.8"/>
      </g>
     </g>
    </g>
    <g id="xtick_21">
     <g id="line2d_33">
      <g>
       <use xlink:href="#m2cbaf7164d" x="1136.45503" y="57.357949" style="stroke: #000000; stroke-width: 0.8"/>
      </g>
     </g>
    </g>
    <g id="xtick_22">
     <g id="line2d_34">
      <g>
       <use xlink:href="#m2cbaf7164d" x="1234.034704" y="57.357949" style="stroke: #000000; stroke-width: 0.8"/>
      </g>
     </g>
    </g>
    <g id="xtick_23">
     <g id="line2d_35">
      <g>
       <use xlink:href="#m2cbaf7164d" x="1331.614378" y="57.357949" style="stroke: #000000; stroke-width: 0.8"/>
      </g>
     </g>
    </g>
    <g id="xtick_24">
     <g id="line2d_36">
      <g>
       <use xlink:href="#m2cbaf7164d" x="1429.194051" y="57.357949" style="stroke: #000000; stroke-width: 0.8"/>
      </g>
     </g>
    </g>
   </g>
   <g id="matplotlib.axis_4">
    <g id="ytick_13"/>
    <g id="ytick_14"/>
   </g>
   <g id="patch_18">
    <path d="M 248.48 57.357949 
L 1536.531692 57.357949 
" style="fill: none; stroke: #000000; stroke-width: 0.8; stroke-linejoin: miter; stroke-linecap: square"/>
   </g>
  </g>
  <g id="axes_3">
   <g id="patch_19">
    <path d="M 1558.363077 503.733333 
L 1667.52 503.733333 
L 1667.52 64.797538 
L 1558.363077 64.797538 
z
" style="fill: #ffffff"/>
   </g>
   <g id="patch_20">
    <path d="M 1558.363077 84.749166 
L 1662.322051 84.749166 
L 1662.322051 121.024851 
L 1558.363077 121.024851 
z
" clip-path="url(#pf1689bcc62)" style="fill: #4682b4; fill-opacity: 0.75; stroke: #000000; stroke-linejoin: miter"/>
   </g>
   <g id="patch_21">
    <path d="M 1558.363077 121.024851 
L 1599.987817 121.024851 
L 1599.987817 157.300537 
L 1558.363077 157.300537 
z
" clip-path="url(#pf1689bcc62)" style="fill: #4682b4; fill-opacity: 0.75; stroke: #000000; stroke-linejoin: miter"/>
   </g>
   <g id="patch_22">
    <path d="M 1558.363077 157.300537 
L 1591.900272 157.300537 
L 1591.900272 193.576222 
L 1558.363077 193.576222 
z
" clip-path="url(#pf1689bcc62)" style="fill: #4682b4; fill-opacity: 0.75; stroke: #000000; stroke-linejoin: miter"/>
   </g>
   <g id="patch_23">
    <path d="M 1558.363077 193.576222 
L 1579.230841 193.576222 
L 1579.230841 229.851908 
L 1558.363077 229.851908 
z
" clip-path="url(#pf1689bcc62)" style="fill: #4682b4; fill-opacity: 0.75; stroke: #000000; stroke-linejoin: miter"/>
   </g>
   <g id="patch_24">
    <path d="M 1558.363077 229.851908 
L 1585.870224 229.851908 
L 1585.870224 266.127593 
L 1558.363077 266.127593 
z
" clip-path="url(#pf1689bcc62)" style="fill: #4682b4; fill-opacity: 0.75; stroke: #000000; stroke-linejoin: miter"/>
   </g>
   <g id="patch_25">
    <path d="M 1558.363077 266.127593 
L 1566.244872 266.127593 
L 1566.244872 302.403279 
L 1558.363077 302.403279 
z
" clip-path="url(#pf1689bcc62)" style="fill: #4682b4; fill-opacity: 0.75; stroke: #000000; stroke-linejoin: miter"/>
   </g>
   <g id="patch_26">
    <path d="M 1558.363077 302.403279 
L 1567.313187 302.403279 
L 1567.313187 338.678964 
L 1558.363077 338.678964 
z
" clip-path="url(#pf1689bcc62)" style="fill: #4682b4; fill-opacity: 0.75; stroke: #000000; stroke-linejoin: miter"/>
   </g>
   <g id="patch_27">
    <path d="M 1558.363077 338.678964 
L 1559.217729 338.678964 
L 1559.217729 374.95465 
L 1558.363077 374.95465 
z
" clip-path="url(#pf1689bcc62)" style="fill: #4682b4; fill-opacity: 0.75; stroke: #000000; stroke-linejoin: miter"/>
   </g>
   <g id="patch_28">
    <path d="M 1558.363077 374.95465 
L 1563.609693 374.95465 
L 1563.609693 411.230335 
L 1558.363077 411.230335 
z
" clip-path="url(#pf1689bcc62)" style="fill: #4682b4; fill-opacity: 0.75; stroke: #000000; stroke-linejoin: miter"/>
   </g>
   <g id="patch_29">
    <path d="M 1558.363077 411.230335 
L 1558.363077 411.230335 
L 1558.363077 447.506021 
L 1558.363077 447.506021 
z
" clip-path="url(#pf1689bcc62)" style="fill: #4682b4; fill-opacity: 0.75; stroke: #000000; stroke-linejoin: miter"/>
   </g>
   <g id="patch_30">
    <path d="M 1558.363077 447.506021 
L 1558.489692 447.506021 
L 1558.489692 483.781706 
L 1558.363077 483.781706 
z
" clip-path="url(#pf1689bcc62)" style="fill: #4682b4; fill-opacity: 0.75; stroke: #000000; stroke-linejoin: miter"/>
   </g>
   <g id="matplotlib.axis_5">
    <g id="xtick_25"/>
    <g id="xtick_26"/>
   </g>
   <g id="matplotlib.axis_6">
    <g id="ytick_15">
     <g id="line2d_37">
      <g>
       <use xlink:href="#mca6bcf6e8d" x="1558.363077" y="102.887008" style="stroke: #000000; stroke-width: 0.8"/>
      </g>
     </g>
    </g>
    <g id="ytick_16">
     <g id="line2d_38">
      <g>
       <use xlink:href="#mca6bcf6e8d" x="1558.363077" y="139.162694" style="stroke: #000000; stroke-width: 0.8"/>
      </g>
     </g>
    </g>
    <g id="ytick_17">
     <g id="line2d_39">
      <g>
       <use xlink:href="#mca6bcf6e8d" x="1558.363077" y="175.438379" style="stroke: #000000; stroke-width: 0.8"/>
      </g>
     </g>
    </g>
    <g id="ytick_18">
     <g id="line2d_40">
      <g>
       <use xlink:href="#mca6bcf6e8d" x="1558.363077" y="211.714065" style="stroke: #000000; stroke-width: 0.8"/>
      </g>
     </g>
    </g>
    <g id="ytick_19">
     <g id="line2d_41">
      <g>
       <use xlink:href="#mca6bcf6e8d" x="1558.363077" y="247.98975" style="stroke: #000000; stroke-width: 0.8"/>
      </g>
     </g>
    </g>
    <g id="ytick_20">
     <g id="line2d_42">
      <g>
       <use xlink:href="#mca6bcf6e8d" x="1558.363077" y="284.265436" style="stroke: #000000; stroke-width: 0.8"/>
      </g>
     </g>
    </g>
    <g id="ytick_21">
     <g id="line2d_43">
      <g>
       <use xlink:href="#mca6bcf6e8d" x="1558.363077" y="320.541121" style="stroke: #000000; stroke-width: 0.8"/>
      </g>
     </g>
    </g>
    <g id="ytick_22">
     <g id="line2d_44">
      <g>
       <use xlink:href="#mca6bcf6e8d" x="1558.363077" y="356.816807" style="stroke: #000000; stroke-width: 0.8"/>
      </g>
     </g>
    </g>
    <g id="ytick_23">
     <g id="line2d_45">
      <g>
       <use xlink:href="#mca6bcf6e8d" x="1558.363077" y="393.092492" style="stroke: #000000; stroke-width: 0.8"/>
      </g>
     </g>
    </g>
    <g id="ytick_24">
     <g id="line2d_46">
      <g>
       <use xlink:href="#mca6bcf6e8d" x="1558.363077" y="429.368178" style="stroke: #000000; stroke-width: 0.8"/>
      </g>
     </g>
    </g>
    <g id="ytick_25">
     <g id="line2d_47">
      <g>
       <use xlink:href="#mca6bcf6e8d" x="1558.363077" y="465.643864" style="stroke: #000000; stroke-width: 0.8"/>
      </g>
     </g>
    </g>
    <g id="ytick_26">
     <g id="line2d_48">
      <g>
       <use xlink:href="#mca6bcf6e8d" x="1558.363077" y="501.919549" style="stroke: #000000; stroke-width: 0.8"/>
      </g>
     </g>
    </g>
   </g>
   <g id="patch_31">
    <path d="M 1558.363077 503.733333 
L 1558.363077 64.797538 
" style="fill: none; stroke: #000000; stroke-width: 0.8; stroke-linejoin: miter; stroke-linecap: square"/>
   </g>
  </g>
 </g>
 <defs>
  <clipPath id="p7681f94897">
   <rect x="248.48" y="64.797538" width="1288.051692" height="438.935795"/>
  </clipPath>
  <clipPath id="pe084c121e0">
   <rect x="248.48" y="20.16" width="1288.051692" height="37.197949"/>
  </clipPath>
  <clipPath id="pf1689bcc62">
   <rect x="1558.363077" y="64.797538" width="109.156923" height="438.935795"/>
  </clipPath>
 </defs>
</svg>
